<?xml version="1.0" encoding="UTF-8"?>
<!DOCTYPE svg PUBLIC "-//W3C//DTD SVG 1.1//EN" "http://www.w3.org/Graphics/SVG/1.1/DTD/svg11.dtd">
<svg xmlns="http://www.w3.org/2000/svg" version="1.1" width="72px" height="70px" style="shape-rendering:geometricPrecision; text-rendering:geometricPrecision; image-rendering:optimizeQuality; fill-rule:evenodd; clip-rule:evenodd" xmlns:xlink="http://www.w3.org/1999/xlink">
<g><path style="opacity:0.975" fill="#e6dbe2" d="M 63.5,51.5 C 56.0827,51.1465 49.7494,48.4798 44.5,43.5C 43.596,42.791 43.2627,41.791 43.5,40.5C 44.2512,38.2871 45.4179,36.2871 47,34.5C 47.4935,32.8659 47.6602,31.1992 47.5,29.5C 47.4643,25.5474 48.131,21.714 49.5,18C 49.0414,16.0584 48.0414,14.5584 46.5,13.5C 38.9711,6.88662 31.3044,6.88662 23.5,13.5C 21.8287,15.5098 21.162,17.8431 21.5,20.5C 21.6646,23.5184 21.498,26.5184 21,29.5C 20.0255,27.1224 19.3589,27.4557 19,30.5C 16.5689,23.4586 16.4022,16.4586 18.5,9.5C 28.0801,2.28912 38.4135,1.12245 49.5,6C 63.6336,13.0942 69.8002,24.5942 68,40.5C 67.5665,44.688 66.0665,48.3547 63.5,51.5 Z"/></g>
<g><path style="opacity:0.995" fill="#e1d3dc" d="M 18.5,9.5 C 16.4022,16.4586 16.5689,23.4586 19,30.5C 19.3589,27.4557 20.0255,27.1224 21,29.5C 21.498,26.5184 21.6646,23.5184 21.5,20.5C 21.8333,20.5 22.1667,20.5 22.5,20.5C 22.5,21.1667 22.5,21.8333 22.5,22.5C 21.3738,29.1246 23.0405,34.7913 27.5,39.5C 27.8799,41.698 27.2132,43.3646 25.5,44.5C 21.4754,48.524 17.1421,52.1907 12.5,55.5C 1.48801,39.3639 2.82134,24.1972 16.5,10C 17.0944,9.53566 17.7611,9.36899 18.5,9.5 Z"/></g>
<g><path style="opacity:1" fill="#ae7955" d="M 46.5,13.5 C 38.6257,11.4712 31.2923,12.6379 24.5,17C 23.1772,17.8159 22.5106,18.9826 22.5,20.5C 22.1667,20.5 21.8333,20.5 21.5,20.5C 21.162,17.8431 21.8287,15.5098 23.5,13.5C 31.3044,6.88662 38.9711,6.88662 46.5,13.5 Z"/></g>
<g><path style="opacity:1" fill="#3f2013" d="M 46.5,13.5 C 46.3832,15.4835 47.0499,17.1502 48.5,18.5C 47.9017,19.7946 47.4017,21.1279 47,22.5C 46.0041,20.3395 44.5041,18.6728 42.5,17.5C 38.5054,15.4952 34.5054,15.1618 30.5,16.5C 28.9826,16.5106 27.8159,17.1772 27,18.5C 26.6268,21.7423 25.1268,23.0756 22.5,22.5C 22.5,21.8333 22.5,21.1667 22.5,20.5C 22.5106,18.9826 23.1772,17.8159 24.5,17C 31.2923,12.6379 38.6257,11.4712 46.5,13.5 Z"/></g>
<g><path style="opacity:1" fill="#a74d1e" d="M 42.5,17.5 C 43.5729,19.6531 43.5729,21.6531 42.5,23.5C 41.9332,21.9705 41.2666,20.4705 40.5,19C 36.7973,18.4213 33.1306,18.588 29.5,19.5C 29.634,21.2915 29.3007,22.9582 28.5,24.5C 27.6236,24.6309 26.9569,24.2975 26.5,23.5C 27.0937,20.692 28.4271,18.3587 30.5,16.5C 34.5054,15.1618 38.5054,15.4952 42.5,17.5 Z"/></g>
<g><path style="opacity:1" fill="#995739" d="M 46.5,13.5 C 48.0414,14.5584 49.0414,16.0584 49.5,18C 48.131,21.714 47.4643,25.5474 47.5,29.5C 46.2652,29.2786 45.2652,28.6119 44.5,27.5C 42.8211,29.1045 40.8211,29.7711 38.5,29.5C 38.5792,28.0695 38.2458,26.7362 37.5,25.5C 39.2914,24.8302 40.9581,24.1635 42.5,23.5C 43.5729,21.6531 43.5729,19.6531 42.5,17.5C 44.5041,18.6728 46.0041,20.3395 47,22.5C 47.4017,21.1279 47.9017,19.7946 48.5,18.5C 47.0499,17.1502 46.3832,15.4835 46.5,13.5 Z"/></g>
<g><path style="opacity:1" fill="#88482d" d="M 30.5,16.5 C 28.4271,18.3587 27.0937,20.692 26.5,23.5C 26.9569,24.2975 27.6236,24.6309 28.5,24.5C 35.195,25.1679 35.695,26.8345 30,29.5C 28.6349,29.1557 27.4682,28.4891 26.5,27.5C 25.3483,30.1062 25.1816,32.7728 26,35.5C 26.3826,36.056 26.8826,36.3893 27.5,36.5C 27.5,37.5 27.5,38.5 27.5,39.5C 23.0405,34.7913 21.3738,29.1246 22.5,22.5C 25.1268,23.0756 26.6268,21.7423 27,18.5C 27.8159,17.1772 28.9826,16.5106 30.5,16.5 Z"/></g>
<g><path style="opacity:1" fill="#cc7143" d="M 42.5,23.5 C 40.9581,24.1635 39.2914,24.8302 37.5,25.5C 38.2458,26.7362 38.5792,28.0695 38.5,29.5C 40.8211,29.7711 42.8211,29.1045 44.5,27.5C 45.2652,28.6119 46.2652,29.2786 47.5,29.5C 47.6602,31.1992 47.4935,32.8659 47,34.5C 45.4179,36.2871 44.2512,38.2871 43.5,40.5C 40.7191,44.0563 37.0524,45.7229 32.5,45.5C 32.2865,43.8561 32.6198,42.3561 33.5,41C 35.4727,40.5045 37.4727,40.3379 39.5,40.5C 38.1935,32.7104 34.8602,31.7104 29.5,37.5C 28.8165,37.1373 28.1499,36.8039 27.5,36.5C 26.8826,36.3893 26.3826,36.056 26,35.5C 25.1816,32.7728 25.3483,30.1062 26.5,27.5C 27.4682,28.4891 28.6349,29.1557 30,29.5C 35.695,26.8345 35.195,25.1679 28.5,24.5C 29.3007,22.9582 29.634,21.2915 29.5,19.5C 33.1306,18.588 36.7973,18.4213 40.5,19C 41.2666,20.4705 41.9332,21.9705 42.5,23.5 Z"/></g>
<g><path style="opacity:1" fill="#a85730" d="M 43.5,40.5 C 43.2627,41.791 43.596,42.791 44.5,43.5C 38.748,56.3877 32.4147,56.7211 25.5,44.5C 27.2132,43.3646 27.8799,41.698 27.5,39.5C 27.5,38.5 27.5,37.5 27.5,36.5C 28.1499,36.8039 28.8165,37.1373 29.5,37.5C 34.8602,31.7104 38.1935,32.7104 39.5,40.5C 37.4727,40.3379 35.4727,40.5045 33.5,41C 32.6198,42.3561 32.2865,43.8561 32.5,45.5C 37.0524,45.7229 40.7191,44.0563 43.5,40.5 Z"/></g>
<g><path style="opacity:1" fill="#e5d9d1" d="M 44.5,43.5 C 49.7494,48.4798 56.0827,51.1465 63.5,51.5C 51.3948,67.4894 36.3948,70.6561 18.5,61C 16.6038,58.932 14.6038,57.0987 12.5,55.5C 17.1421,52.1907 21.4754,48.524 25.5,44.5C 32.4147,56.7211 38.748,56.3877 44.5,43.5 Z"/></g>
</svg>
