<?xml version="1.0" encoding="UTF-8"?>
<!DOCTYPE svg PUBLIC "-//W3C//DTD SVG 1.1//EN" "http://www.w3.org/Graphics/SVG/1.1/DTD/svg11.dtd">
<svg xmlns="http://www.w3.org/2000/svg" version="1.1" width="130px" height="82px" style="shape-rendering:geometricPrecision; text-rendering:geometricPrecision; image-rendering:optimizeQuality; fill-rule:evenodd; clip-rule:evenodd" xmlns:xlink="http://www.w3.org/1999/xlink">
<g><path style="opacity:1" fill="#fcf9f8" d="M -0.5,-0.5 C 42.8333,-0.5 86.1667,-0.5 129.5,-0.5C 129.5,26.8333 129.5,54.1667 129.5,81.5C 86.1667,81.5 42.8333,81.5 -0.5,81.5C -0.5,54.1667 -0.5,26.8333 -0.5,-0.5 Z"/></g>
<g><path style="opacity:1" fill="#e09475" d="M 8.5,5.5 C 10.8333,4.16667 13.1667,4.16667 15.5,5.5C 14.8333,6.16667 14.1667,6.83333 13.5,7.5C 13.1959,5.20432 12.1959,4.87099 10.5,6.5C 10.1583,5.66175 9.49162,5.32842 8.5,5.5 Z"/></g>
<g><path style="opacity:1" fill="#e14915" d="M 15.5,5.5 C 18.2436,6.07167 19.0769,7.73834 18,10.5C 15.2224,11.6853 13.7224,10.6853 13.5,7.5C 14.1667,6.83333 14.8333,6.16667 15.5,5.5 Z"/></g>
<g><path style="opacity:1" fill="#e24108" d="M 8.5,5.5 C 9.49162,5.32842 10.1583,5.66175 10.5,6.5C 10.5,8.5 10.5,10.5 10.5,12.5C 10.1818,17.0323 10.5151,21.3656 11.5,25.5C 9.72113,27.3435 7.38779,28.0102 4.5,27.5C 5.61085,22.6119 5.61085,17.7786 4.5,13C 5.24888,11.2663 5.74888,9.43298 6,7.5C 6.7083,6.61947 7.54163,5.9528 8.5,5.5 Z"/></g>
<g><path style="opacity:1" fill="#e34712" d="M 49.5,6.5 C 51.5,6.5 53.5,6.5 55.5,6.5C 55.5,13.5 55.5,20.5 55.5,27.5C 53.8333,27.5 52.1667,27.5 50.5,27.5C 49.6591,20.5352 49.3257,13.5352 49.5,6.5 Z"/></g>
<g><path style="opacity:1" fill="#e29679" d="M 62.5,12.5 C 64.5,11.1667 66.5,11.1667 68.5,12.5C 67.5084,12.3284 66.8417,12.6618 66.5,13.5C 65.8333,13.5 65.1667,13.5 64.5,13.5C 64.1583,12.6618 63.4916,12.3284 62.5,12.5 Z"/></g>
<g><path style="opacity:1" fill="#e19e83" d="M 93.5,12.5 C 95.5,11.1667 97.5,11.1667 99.5,12.5C 98.5655,13.5676 98.2322,14.901 98.5,16.5C 97.8386,15.2825 97.1719,13.9492 96.5,12.5C 95.8165,12.8627 95.1499,13.1961 94.5,13.5C 94.5,12.8333 94.1667,12.5 93.5,12.5 Z"/></g>
<g><path style="opacity:1" fill="#e1440d" d="M 22.5,12.5 C 24.5,12.5 26.5,12.5 28.5,12.5C 28.5,17.5 28.5,22.5 28.5,27.5C 26.5,27.5 24.5,27.5 22.5,27.5C 22.5,22.5 22.5,17.5 22.5,12.5 Z"/></g>
<g><path style="opacity:1" fill="#fcf3ee" d="M 98.5,16.5 C 98.5,16.8333 98.5,17.1667 98.5,17.5C 96.1667,17.1667 94.8333,15.8333 94.5,13.5C 95.1499,13.1961 95.8165,12.8627 96.5,12.5C 97.1719,13.9492 97.8386,15.2825 98.5,16.5 Z"/></g>
<g><path style="opacity:1" fill="#fbe9e2" d="M 64.5,13.5 C 65.1667,13.5 65.8333,13.5 66.5,13.5C 67.8333,15.8333 67.8333,18.1667 66.5,20.5C 65.8826,20.6107 65.3826,20.944 65,21.5C 64.5034,19.1902 64.3367,16.8568 64.5,14.5C 64.5,14.1667 64.5,13.8333 64.5,13.5 Z"/></g>
<g><path style="opacity:1" fill="#e04712" d="M 99.5,12.5 C 102.389,12.999 103.056,14.499 101.5,17C 100.552,17.4828 99.552,17.6495 98.5,17.5C 98.5,17.1667 98.5,16.8333 98.5,16.5C 98.2322,14.901 98.5655,13.5676 99.5,12.5 Z"/></g>
<g><path style="opacity:1" fill="#e2420a" d="M 14.5,12.5 C 16.1667,12.5 17.8333,12.5 19.5,12.5C 19.3336,20.5069 19.5003,28.5069 20,36.5C 21.5505,32.5493 24.2171,30.8827 28,31.5C 28.7203,33.1124 28.5536,34.6124 27.5,36C 25.4132,35.7821 23.4132,35.9488 21.5,36.5C 26.6674,37.7318 29.0007,41.0652 28.5,46.5C 26.5,46.5 24.5,46.5 22.5,46.5C 21.3898,35.9455 20.3898,35.9455 19.5,46.5C 17.5,46.5 15.5,46.5 13.5,46.5C 13.5,45.1667 13.5,43.8333 13.5,42.5C 14.494,32.6806 14.8274,22.6806 14.5,12.5 Z"/></g>
<g><path style="opacity:1" fill="#e34914" d="M 43.5,11.5 C 45.6807,11.2837 47.3474,12.117 48.5,14C 46.9546,15.8219 46.288,17.9886 46.5,20.5C 46.6132,22.6413 47.2799,24.4747 48.5,26C 46.1496,29.0507 43.6496,29.2174 41,26.5C 38.4533,20.8075 39.2866,15.8075 43.5,11.5 Z"/></g>
<g><path style="opacity:1" fill="#e15322" d="M 83.5,11.5 C 88.1585,11.0146 89.4919,12.848 87.5,17C 84.7555,17.628 82.7555,16.628 81.5,14C 82.3805,13.2917 83.0472,12.4584 83.5,11.5 Z"/></g>
<g><path style="opacity:1" fill="#e9b29b" d="M 10.5,12.5 C 11.8333,12.5 13.1667,12.5 14.5,12.5C 14.8274,22.6806 14.494,32.6806 13.5,42.5C 13.8318,32.8104 13.4984,23.1437 12.5,13.5C 11.5091,17.4454 11.1758,21.4454 11.5,25.5C 10.5151,21.3656 10.1818,17.0323 10.5,12.5 Z"/></g>
<g><path style="opacity:1" fill="#e34715" d="M 68.5,12.5 C 73.7666,15.6446 73.7666,18.6446 68.5,21.5C 67.5084,21.6716 66.8417,21.3382 66.5,20.5C 67.8333,18.1667 67.8333,15.8333 66.5,13.5C 66.8417,12.6618 67.5084,12.3284 68.5,12.5 Z"/></g>
<g><path style="opacity:1" fill="#e2440e" d="M 31.5,11.5 C 33.4672,11.2606 35.3005,11.5939 37,12.5C 37.4993,17.4889 37.6659,22.4889 37.5,27.5C 35.5,27.5 33.5,27.5 31.5,27.5C 32.0653,22.6778 31.3987,18.1778 29.5,14C 30.3805,13.2917 31.0472,12.4584 31.5,11.5 Z"/></g>
<g><path style="opacity:1" fill="#e24814" d="M 93.5,12.5 C 94.1667,12.5 94.5,12.8333 94.5,13.5C 94.8333,15.8333 96.1667,17.1667 98.5,17.5C 102.168,19.3919 103.335,22.3919 102,26.5C 98.7441,28.4285 95.2441,28.9285 91.5,28C 88.5096,24.6214 89.1763,22.9547 93.5,23C 94.0897,24.5095 94.7564,26.0095 95.5,27.5C 96.5,27.1667 97.1667,26.5 97.5,25.5C 95.3274,22.8278 92.8274,20.4945 90,18.5C 88.8785,15.1284 90.0451,13.1284 93.5,12.5 Z"/></g>
<g><path style="opacity:1" fill="#e3450f" d="M 62.5,12.5 C 63.4916,12.3284 64.1583,12.6618 64.5,13.5C 64.5,13.8333 64.5,14.1667 64.5,14.5C 63.1667,17.5 63.1667,20.5 64.5,23.5C 65.4525,25.61 67.1192,26.7767 69.5,27C 60.3921,29.5653 56.5588,26.0653 58,16.5C 58.7921,14.3563 60.2921,13.023 62.5,12.5 Z"/></g>
<g><path style="opacity:1" fill="#e1460f" d="M 74.5,12.5 C 76.5,12.5 78.5,12.5 80.5,12.5C 80.5,17.5 80.5,22.5 80.5,27.5C 78.1432,27.6633 75.8098,27.4966 73.5,27C 74.4692,22.2633 74.8025,17.43 74.5,12.5 Z"/></g>
<g><path style="opacity:1" fill="#e08c68" d="M 64.5,14.5 C 64.3367,16.8568 64.5034,19.1902 65,21.5C 65.3826,20.944 65.8826,20.6107 66.5,20.5C 66.8417,21.3382 67.5084,21.6716 68.5,21.5C 67.1667,22.1667 65.8333,22.8333 64.5,23.5C 63.1667,20.5 63.1667,17.5 64.5,14.5 Z"/></g>
<g><path style="opacity:1" fill="#e24612" d="M 105.5,30.5 C 107.948,30.0847 109.281,31.0847 109.5,33.5C 108.239,37.1309 106.239,37.4643 103.5,34.5C 102.914,34.7093 102.414,35.0426 102,35.5C 101.248,38.8936 101.415,42.227 102.5,45.5C 100.167,46.8333 97.8333,46.8333 95.5,45.5C 96.8333,41.1667 96.8333,36.8333 95.5,32.5C 97.9977,31.0623 100.164,31.3956 102,33.5C 103.145,32.3636 104.312,31.3636 105.5,30.5 Z"/></g>
<g><path style="opacity:1" fill="#e24d1a" d="M 34.5,30.5 C 38.1916,29.9712 41.3583,30.9712 44,33.5C 44.6667,35.1667 44.6667,36.8333 44,38.5C 41.8602,40.4869 39.3602,41.8202 36.5,42.5C 38.3153,44.6945 40.482,45.0278 43,43.5C 43.4479,45.4089 42.6145,46.5756 40.5,47C 32.4727,48.1437 28.9727,44.6437 30,36.5C 31.332,34.34 32.832,32.34 34.5,30.5 Z"/></g>
<g><path style="opacity:1" fill="#f7dace" d="M 37.5,31.5 C 38.1174,31.6107 38.6174,31.944 39,32.5C 39.6667,34.5 39.6667,36.5 39,38.5C 38.2904,39.9733 37.1238,40.6399 35.5,40.5C 35.2069,37.2457 35.8736,34.2457 37.5,31.5 Z"/></g>
<g><path style="opacity:1" fill="#fdf9f7" d="M 52.5,33.5 C 52.5,33.1667 52.5,32.8333 52.5,32.5C 53.1174,32.3893 53.6174,32.056 54,31.5C 54.8902,34.7055 54.5569,37.7055 53,40.5C 52.5034,38.1902 52.3367,35.8568 52.5,33.5 Z"/></g>
<g><path style="opacity:1" fill="#e3430b" d="M 77.5,35.5 C 77.5,37.5 77.5,39.5 77.5,41.5C 77.0369,45.8026 74.7035,47.6359 70.5,47C 70.0426,46.586 69.7093,46.086 69.5,45.5C 72.0488,41.292 72.0488,37.292 69.5,33.5C 71.0106,31.5589 73.0106,31.0589 75.5,32C 76.8228,32.8159 77.4894,33.9826 77.5,35.5 Z"/></g>
<g><path style="opacity:1" fill="#e04a19" d="M 119.5,31.5 C 122.524,31.3642 124.024,32.6975 124,35.5C 120.331,37.0093 118.831,35.6759 119.5,31.5 Z"/></g>
<g><path style="opacity:1" fill="#e33f03" d="M 57.5,32.5 C 58.5,32.8333 59.1667,33.5 59.5,34.5C 59.3059,36.9118 57.9726,37.9118 55.5,37.5C 55.0773,35.2188 55.744,33.5521 57.5,32.5 Z"/></g>
<g><path style="opacity:1" fill="#e36a3e" d="M 50.5,31.5 C 53.0118,30.1326 55.3452,30.466 57.5,32.5C 55.744,33.5521 55.0773,35.2188 55.5,37.5C 57.9726,37.9118 59.3059,36.9118 59.5,34.5C 60.5983,35.6009 60.765,36.9343 60,38.5C 57.7448,40.4988 55.2448,41.8321 52.5,42.5C 51.1667,39.5 51.1667,36.5 52.5,33.5C 52.3367,35.8568 52.5034,38.1902 53,40.5C 54.5569,37.7055 54.8902,34.7055 54,31.5C 53.6174,32.056 53.1174,32.3893 52.5,32.5C 52.1583,31.6618 51.4916,31.3284 50.5,31.5 Z"/></g>
<g><path style="opacity:1" fill="#e34612" d="M 50.5,31.5 C 51.4916,31.3284 52.1583,31.6618 52.5,32.5C 52.5,32.8333 52.5,33.1667 52.5,33.5C 51.1667,36.5 51.1667,39.5 52.5,42.5C 53.4525,44.61 55.1192,45.7767 57.5,46C 48.4432,48.6193 44.6099,45.1193 46,35.5C 46.7921,33.3563 48.2921,32.023 50.5,31.5 Z"/></g>
<g><path style="opacity:1" fill="#e24814" d="M 115.5,41.5 C 111.947,39.9598 110.78,37.2931 112,33.5C 115.01,30.6117 116.343,30.945 116,34.5C 117.579,36.0412 119.413,37.2078 121.5,38C 126.174,43.7191 124.674,46.8857 117,47.5C 113.974,47.7401 111.808,46.5734 110.5,44C 111.385,41.8434 113.052,41.0101 115.5,41.5 Z"/></g>
<g><path style="opacity:1" fill="#e59a7c" d="M 77.5,35.5 C 78.1667,35.8333 78.8333,36.1667 79.5,36.5C 79.5,38.1667 79.5,39.8333 79.5,41.5C 78.8333,41.5 78.1667,41.5 77.5,41.5C 77.5,39.5 77.5,37.5 77.5,35.5 Z"/></g>
<g><path style="opacity:1" fill="#df450f" d="M 69.5,33.5 C 68.1119,39.7122 67.4452,46.0456 67.5,52.5C 65.4727,52.6621 63.4727,52.4955 61.5,52C 62.4788,45.2555 62.8122,38.4222 62.5,31.5C 65.2108,31.1849 67.5441,31.8516 69.5,33.5 Z"/></g>
<g><path style="opacity:1" fill="#e24712" d="M 79.5,41.5 C 79.5,39.8333 79.5,38.1667 79.5,36.5C 80.4231,32.7356 82.7565,31.2356 86.5,32C 85.2175,34.7947 85.2175,37.6281 86.5,40.5C 88.024,39.4729 88.6906,37.9729 88.5,36C 86.2087,32.0752 87.2087,30.7418 91.5,32C 94.7609,38.1246 92.7609,41.458 85.5,42C 86.4992,44.7611 88.4992,46.0944 91.5,46C 85.7116,48.9915 81.7116,47.4915 79.5,41.5 Z"/></g>
<g><path style="opacity:1" fill="#fae7df" d="M 115.5,41.5 C 118.084,42.0483 119.084,43.715 118.5,46.5C 117.325,46.719 116.325,46.3857 115.5,45.5C 116.807,44.135 116.807,42.8016 115.5,41.5 Z"/></g>
<g><path style="opacity:1" fill="#171717" d="M 54.5,57.5 C 56.337,57.6395 56.6704,58.3061 55.5,59.5C 54.7025,59.0431 54.3691,58.3764 54.5,57.5 Z"/></g>
<g><path style="opacity:1" fill="#868686" d="M 76.5,58.5 C 76.335,61.8499 76.5017,65.1832 77,68.5C 77.2321,67.2625 77.7321,66.2625 78.5,65.5C 78.5,66.8333 78.5,68.1667 78.5,69.5C 77.5,69.5 76.5,69.5 75.5,69.5C 75.185,65.6286 75.5184,61.9619 76.5,58.5 Z"/></g>
<g><path style="opacity:1" fill="#161616" d="M 76.5,58.5 C 78.7925,58.2436 80.9592,58.5769 83,59.5C 83.6667,60.8333 83.6667,62.1667 83,63.5C 81.3775,64.0989 79.8775,64.7656 78.5,65.5C 77.7321,66.2625 77.2321,67.2625 77,68.5C 76.5017,65.1832 76.335,61.8499 76.5,58.5 Z"/></g>
<g><path style="opacity:1" fill="#141414" d="M 112.5,57.5 C 113.777,58.6936 114.444,60.3603 114.5,62.5C 115.002,65.0086 115.002,67.3419 114.5,69.5C 113.914,69.2907 113.414,68.9574 113,68.5C 112.501,64.8484 112.335,61.1817 112.5,57.5 Z"/></g>
<g><path style="opacity:1" fill="#efefef" d="M 78.5,60.5 C 79.5,60.5 80.5,60.5 81.5,60.5C 81.5,61.5 81.5,62.5 81.5,63.5C 80.5,63.5 79.5,63.5 78.5,63.5C 78.5,62.5 78.5,61.5 78.5,60.5 Z"/></g>
<g><path style="opacity:1" fill="#222222" d="M 40.5,60.5 C 44.0886,60.7302 47.7553,60.8968 51.5,61C 52.7825,63.7947 52.7825,66.6281 51.5,69.5C 50.0406,60.3897 48.3739,60.3897 46.5,69.5C 45.0406,60.3897 43.3739,60.3897 41.5,69.5C 40.5159,66.5719 40.1826,63.5719 40.5,60.5 Z"/></g>
<g><path style="opacity:1" fill="#1c1c1c" d="M 54.5,61.5 C 55.7251,62.1522 56.3917,63.3189 56.5,65C 56.1667,66.1667 55.8333,67.3333 55.5,68.5C 54.5258,66.2573 54.1924,63.924 54.5,61.5 Z"/></g>
<g><path style="opacity:1" fill="#1b1b1b" d="M 62.5,60.5 C 63.8221,60.33 64.9887,60.6634 66,61.5C 66.8184,64.2272 66.6517,66.8938 65.5,69.5C 64.5258,67.2573 64.1924,64.924 64.5,62.5C 63.5,62.5 62.5,62.5 61.5,62.5C 61.7989,64.604 61.4656,66.604 60.5,68.5C 59.5258,66.2573 59.1924,63.924 59.5,61.5C 60.791,61.7373 61.791,61.404 62.5,60.5 Z"/></g>
<g><path style="opacity:1" fill="#acacac" d="M 96.5,61.5 C 95.2749,62.1522 94.6083,63.3189 94.5,65C 94.6083,66.6811 95.2749,67.8478 96.5,68.5C 94.5,69.8333 92.5,69.8333 90.5,68.5C 91.4916,68.6716 92.1583,68.3382 92.5,67.5C 93.4682,65.3926 93.8016,63.0593 93.5,60.5C 94.791,60.2627 95.791,60.596 96.5,61.5 Z"/></g>
<g><path style="opacity:1" fill="#1a1a1a" d="M 96.5,68.5 C 95.2749,67.8478 94.6083,66.6811 94.5,65C 94.6083,63.3189 95.2749,62.1522 96.5,61.5C 98.0098,60.2721 99.5098,60.2721 101,61.5C 101.818,64.2272 101.652,66.8938 100.5,69.5C 99.5258,67.2573 99.1924,64.924 99.5,62.5C 98.5,62.5 97.5,62.5 96.5,62.5C 96.5,64.5 96.5,66.5 96.5,68.5 Z"/></g>
<g><path style="opacity:1" fill="#1d1d1d" d="M 36.5,57.5 C 37.7943,59.0478 38.4609,61.0478 38.5,63.5C 38.1667,65.5 37.8333,67.5 37.5,69.5C 36.4016,68.3845 35.2349,68.3845 34,69.5C 30.7948,68.2018 29.7948,65.8684 31,62.5C 32.3957,60.4732 34.0624,60.1398 36,61.5C 36.49,60.2068 36.6567,58.8734 36.5,57.5 Z"/></g>
<g><path style="opacity:1" fill="#202020" d="M 105.5,60.5 C 109.5,59.8333 111.167,61.5 110.5,65.5C 108.801,65.3398 107.134,65.5065 105.5,66C 107.078,67.1405 108.744,67.6405 110.5,67.5C 106.937,70.5205 104.604,69.6872 103.5,65C 103.519,63.167 104.185,61.667 105.5,60.5 Z"/></g>
<g><path style="opacity:1" fill="#1b1b1b" d="M 22.5,58.5 C 23.8333,58.5 25.1667,58.5 26.5,58.5C 26.9927,61.8121 27.9927,64.9788 29.5,68C 29.1667,68.5 28.8333,69 28.5,69.5C 26.4005,66.0155 23.9005,65.6822 21,68.5C 20.9525,65.1224 21.4525,61.7891 22.5,58.5 Z"/></g>
<g><path style="opacity:1" fill="#d6d6d6" d="M 23.5,61.5 C 25.4646,61.9483 25.7979,62.9483 24.5,64.5C 23.6143,63.675 23.281,62.675 23.5,61.5 Z"/></g>
<g><path style="opacity:1" fill="#e9e9e9" d="M 33.5,62.5 C 36.9563,63.5362 37.2896,65.2029 34.5,67.5C 32.2957,66.218 31.9624,64.5514 33.5,62.5 Z"/></g>
<g><path style="opacity:1" fill="#b2b2b2" d="M 105.5,62.5 C 106.675,62.281 107.675,62.6143 108.5,63.5C 106.948,64.7979 105.948,64.4646 105.5,62.5 Z"/></g>
<g><path style="opacity:1" fill="#212121" d="M 92.5,67.5 C 92.1583,68.3382 91.4916,68.6716 90.5,68.5C 87.0134,70.2929 85.5134,69.2929 86,65.5C 90.7069,63.9105 90.5402,62.7438 85.5,62C 87.2021,60.2816 89.0355,60.115 91,61.5C 91.1909,63.7078 91.6909,65.7078 92.5,67.5 Z"/></g>
<g><path style="opacity:1" fill="#f6f6f6" d="M 87.5,65.5 C 89.337,65.6395 89.6704,66.3061 88.5,67.5C 87.7025,67.0431 87.3691,66.3764 87.5,65.5 Z"/></g>
</svg>
